<svg xmlns="http://www.w3.org/2000/svg"
     version="1.1"
     xmlns:cc="http://creativecommons.org/ns#"
     xmlns:dc="http://purl.org/dc/elements/1.1/"
     xmlns:rdf="http://www.w3.org/1999/02/22-rdf-syntax-ns#"
     xmlns:xlink="http://www.w3.org/1999/xlink"
     viewBox="0 0 46.313827 15.6649708971">
  <a xlink:href="https://www.jameco.com/webapp/wcs/stores/servlet/PageDisplayView?langId=-1&amp;storeId=10001&amp;catalogId=10001&amp;content=about"
     xlink:show="new">
    <rect fill="#272833"
          fill-opacity="0"
          id="bounding-box"
          x="0"
          y="0"
          width="46.313827"
          height="15.6649708971"
          onmouseleave="event.target.setAttribute('fill-opacity', '0');"
          onmouseover="event.target.setAttribute('fill-opacity', '0.4');"/>
  <g transform="translate(-76.759 -170.34)
                  translate(.13229 -.13229)"
     fill="#00618e"
     onmouseleave="document.getElementById('bounding-box').setAttribute('fill-opacity', '0');"
     onmouseover="document.getElementById('bounding-box').setAttribute('fill-opacity', '0.4');">
    <path d="m86.079 180.34h34.549v-1.2976h-34.549z"/>
    <path d="m121.55 171.99h0.17357v-0.38841h0.13687c0.0917 0 0.15593 0.0109 0.19262 0.0321 0.0614 0.0363 0.0928 0.11184 0.0928 0.22578v0.078l4e-3 0.0317c7.1e-4 4e-3 1e-3 7e-3 2e-3 0.0109 3.5e-4 3e-3 1e-3 6e-3 2e-3 0.01h0.16263l-7e-3 -0.0127c-4e-3 -8e-3 -7e-3 -0.025-8e-3 -0.0511-2e-3 -0.0258-2e-3 -0.0501-2e-3 -0.073v-0.0723c0-0.0494-0.0183-0.10019-0.054-0.1524-0.036-0.0519-0.0928-0.084-0.16969-0.0963 0.061-0.01 0.10866-0.0254 0.14288-0.0476 0.0639-0.0416 0.096-0.10619 0.096-0.19403 0-0.12347-0.0508-0.20673-0.15204-0.24871-0.0568-0.024-0.14676-0.036-0.26847-0.036h-0.34466zm0.49424-0.53128c-0.0367 0.0148-0.0914 0.0219-0.16404 0.0219h-0.15663v-0.35595h0.14781c0.096 0 0.16545 0.0116 0.2092 0.0367 0.043 0.0243 0.0653 0.0723 0.0653 0.14393 0 0.0755-0.0339 0.12665-0.1016 0.15346zm0.502-0.59055c-0.17497-0.17392-0.38629-0.26141-0.635-0.26141-0.24659 0-0.45684 0.0875-0.63111 0.26141-0.17463 0.17497-0.26212 0.38558-0.26212 0.63217 0 0.24907 0.0868 0.46109 0.26 0.63606 0.17427 0.17569 0.38558 0.26353 0.63323 0.26353 0.24871 0 0.46003-0.0878 0.635-0.26353 0.17498-0.17568 0.26212-0.38805 0.26212-0.63606 0-0.24729-0.0871-0.4579-0.26212-0.63217zm-0.0892 0.0868c0.14958 0.15028 0.22472 0.33232 0.22472 0.54539 0 0.21485-0.0751 0.39794-0.22472 0.54928-0.14993 0.15134-0.33126 0.22684-0.54575 0.22684-0.21413 0-0.39546-0.0755-0.54539-0.22684-0.14922-0.15134-0.22296-0.33443-0.22296-0.54928 0-0.21307 0.0744-0.39511 0.22437-0.54539 0.15028-0.15169 0.33196-0.22719 0.54398-0.22719 0.21343 0 0.39547 0.0755 0.54575 0.22719"/>
    <path d="m113.29 172.56-0.8569 0.66075c-0.44626-0.5715-1.0354-1.3212-1.8394-1.3568-0.74965-0.0716-1.3921 0.35701-1.7134 0.99942-0.48225 1.3215-0.5715 3.1253 0.48225 4.2136 0.48154 0.44697 1.1599 0.67909 1.8207 0.44697 0.71438-0.17851 1.1959-0.92852 1.5713-1.5l0.80398 0.51788c-0.30409 1.1074-1.4647 1.8567-2.5178 2.0359-1.6425 0.19615-3.1605-0.30409-4.1427-1.6252-0.71402-1.0538-0.92816-2.66-0.30304-3.8209 0.57045-1.2852 1.9099-2.0712 3.2491-2.196 1.4284-0.0716 2.7143 0.33902 3.4459 1.6245"/>
    <path d="m105.92 171.26v1.0562h-2.5224l-0.0109 1.9308h2.5333v0.99307h-2.5333v2.2207h2.5333v1.0904h-4.6344v-7.2912h4.6344"/>
    <path d="m100.54 171.26v7.2912h-2.0084v-4.3935l-1.9756 4.3935h-0.18944l-2.0041-4.3868-0.01587 4.3868h-1.1268v-7.2912h1.9971s1.1271 2.4578 1.6986 3.6721l1.6161-3.6721h2.0084"/>
    <path d="m117.06 171.76c-0.49989 0.0896-0.9458 0.55351-1.107 1.0178-0.48189 1.4104-0.58878 3.321 0.50024 4.4993 0.33902 0.28646 0.78564 0.33937 1.2319 0.26847 0.44627-0.09 0.8569-0.51824 1.0178-0.92887 0.48224-1.2499 0.42862-2.8572-0.12524-4.0351-0.2854-0.5715-0.8569-0.91087-1.5176-0.82162zm3.8929 1.3928c0.55281 1.4464 0.39229 3.1785-0.76799 4.2852-1.143 1.0714-2.8388 1.3568-4.3032 0.89217-1.107-0.35666-2.1248-1.3384-2.4458-2.4627-0.42862-1.5536 0.0536-3.1432 1.3035-4.1607 1.1959-0.9465 3.0349-1.0714 4.3921-0.42862 0.74965 0.39264 1.5 1.0887 1.8214 1.8747"/>
    <path d="m88.668 173.22-0.75001 2.2317 1.6312-5e-3zm4.4101 5.3569h-2.2677l-0.84772-2.0475h-2.4553l-0.7366 2.0235-1.1204 6e-3 2.5266-7.2972h2.1202l2.7809 7.3152"/>
    <path d="m85.505 171.87 0.07267 7.0467c0.03669 1.2202-0.72778 2.3308-1.7844 3.0042-1.5656 0.94721-3.9695 0.9652-5.5171-0.018-1.0379-0.76482-1.584-1.8027-1.5113-3.0776 0.36407-0.10866 0.74683-0.0727 1.1289-0.0176 0.07267 0.76447 0.32773 1.5293 1.0559 1.9844 0.65581 0.36442 1.6027 0.52846 2.3312 0.20073 0.85584-0.38276 1.1649-1.0929 1.1649-2.0214l-0.07267-7.5565c0-0.0547 0.03634-0.1457 0.12735-0.1457l2.9683 0.0183 0.03634 0.58244"/>
    <path d="m87.487 181.38h-1.0132v0.40146h0.93063v0.33796h-0.93063v0.49495h1.0587v0.33761h-1.4499v-1.9099h1.4044v0.33796"/>
    <path d="m89.839 182.6h0.95003v0.34572h-1.349v-1.9099h0.39899v1.5642"/>
    <path d="m94.052 181.38h-1.0132v0.40146h0.93063v0.33796h-0.93063v0.49495h1.0583v0.33761h-1.4496v-1.9099h1.4044v0.33796"/>
    <path d="m97.223 181.67c-0.03175-0.1143-0.09278-0.32985-0.42263-0.32985-0.19156 0-0.47343 0.12771-0.47343 0.66746 0 0.34325 0.13582 0.65193 0.47343 0.65193 0.22084 0 0.375-0.12488 0.42263-0.35913h0.39934c-0.07973 0.41487-0.35101 0.7045-0.83009 0.7045-0.50765 0-0.87242-0.34255-0.87242-1.0026 0-0.66781 0.38594-1.0079 0.87771-1.0079 0.57221 0 0.80328 0.3937 0.82479 0.67557h-0.39934"/>
    <path d="m100.32 182.95h-0.39899v-1.572h-0.57679v-0.33796h1.5533v0.33796h-0.5775v1.572"/>
    <path d="m102.72 182.95h0.39123v-0.74754h0.41204c0.29528 0 0.31115 0.10125 0.31115 0.36195 0 0.1965 0.0162 0.29493 0.0423 0.38559h0.44203v-0.0504c-0.0854-0.0321-0.0854-0.10124-0.0854-0.38029 0-0.35666-0.085-0.41522-0.24201-0.48437 0.18874-0.0639 0.29528-0.24447 0.29528-0.45473 0-0.16474-0.0931-0.5401-0.60114-0.5401h-0.96555zm0.39123-1.0693v-0.51082h0.49742c0.23389 0 0.2794 0.14887 0.2794 0.25012 0 0.18909-0.1016 0.2607-0.30868 0.2607h-0.46814"/>
    <path d="m106.08 181.99c0 0.89676 0.66463 1.0054 0.91793 1.0054 0.25223 0 0.91757-0.10866 0.91757-1.0054 0-0.89641-0.66534-1.0054-0.91757-1.0054-0.2533 0-0.91793 0.10901-0.91793 1.0054zm0.39934 0c0-0.53446 0.30269-0.66746 0.51859-0.66746 0.21519 0 0.51823 0.133 0.51823 0.66746 0 0.53481-0.30304 0.66746-0.51823 0.66746-0.2159 0-0.51859-0.13265-0.51859-0.66746"/>
    <path d="m110.98 181.04h0.37218v1.9099h-0.39899l-0.77929-1.3621h-5e-3v1.3621h-0.37288v-1.9099h0.42051l0.75777 1.3303h6e-3v-1.3303"/>
    <path d="m113.29 182.95h0.3991v-1.9101h-0.3991z"/>
    <path d="m116.86 181.67c-0.0317-0.1143-0.0935-0.32985-0.42298-0.32985-0.19156 0-0.47378 0.12771-0.47378 0.66746 0 0.34325 0.13582 0.65193 0.47378 0.65193 0.22084 0 0.375-0.12488 0.42298-0.35913h0.39934c-0.0801 0.41487-0.35172 0.7045-0.83008 0.7045-0.50765 0-0.87313-0.34255-0.87313-1.0026 0-0.66781 0.38594-1.0079 0.87807-1.0079 0.57185 0 0.80362 0.3937 0.82514 0.67557h-0.39934"/>
    <path d="m119.43 182.36c2e-3 0.10654 0.0557 0.30868 0.40428 0.30868 0.18874 0 0.39899-0.0452 0.39899-0.2473 0-0.14922-0.14393-0.18909-0.34607-0.23671l-0.20496-0.048c-0.30833-0.072-0.60608-0.14111-0.60608-0.56127 0-0.21272 0.1143-0.58773 0.73413-0.58773 0.58526 0 0.7419 0.38277 0.74507 0.61701h-0.38312c-0.0106-0.085-0.043-0.28751-0.39158-0.28751-0.15134 0-0.33232 0.0561-0.33232 0.22895 0 0.14887 0.12207 0.18098 0.20215 0.19967l0.46566 0.1143c0.26071 0.0635 0.50024 0.17004 0.50024 0.5133 0 0.57467-0.58561 0.62476-0.75283 0.62476-0.69673 0-0.81668-0.4011-0.81668-0.63817h0.38312"/>
  </g>
  </a>
</svg>
