<svg xmlns="http://www.w3.org/2000/svg"
     version="1.1"
     xmlns:cc="http://creativecommons.org/ns#"
     xmlns:dc="http://purl.org/dc/elements/1.1/"
     xmlns:rdf="http://www.w3.org/1999/02/22-rdf-syntax-ns#"
     xmlns:xlink="http://www.w3.org/1999/xlink"
     viewBox="0 0 57.211876 19.3510757059">
<defs>
  <clipPath id="b">
    <path d="m0 774h594v-774h-594z"/>
  </clipPath>
  <clipPath id="a">
    <path d="m395.69 698.9h162.18v39.098h-162.18z"/>
  </clipPath>
</defs>
<a xlink:href="https://www.lockheedmartin.com/en-us/who-we-are.html"
   xlink:show="new">
  <rect width="57.211876"
        height="19.3510757059"
        id="bounding-box"
        x="0"
        y="0"
        fill="#272833"
        fill-opacity="0"
        onmouseleave="event.target.setAttribute('fill-opacity', '0');"
        onmouseover="event.target.setAttribute('fill-opacity', '0.4');"/>
  <g transform="translate(-131.66 -121.53)
                matrix(.35278 0 0 -.35278 -7.9352 381.88)"
     onmouseleave="document.getElementById('bounding-box').setAttribute('fill-opacity', '0');"
     onmouseover="document.getElementById('bounding-box').setAttribute('fill-opacity', '0.4');">
    <g clip-path="url(#b)">
      <g transform="translate(476.2 718.05)">
        <path d="m0 0-2.089-4.431h-1.889l-0.201 4.431h-0.072l-0.92-4.431h-1.981l1.378 6.629h3.264l0.05-3.81h0.082l1.615 3.81h3.357l-1.374-6.629h-2.093l0.957 4.431z" fill="#365181"/>
      </g>
      <g transform="translate(483.43 720.25)">
        <path d="m0 0h3.021l0.466-6.628h-2.169l-0.028 1.173h-1.941l-0.529-1.173h-2.036zm1.311-4.072-0.125 2.51h-0.077l-1.221-2.51z" fill="#365181"/>
      </g>
      <g transform="translate(500.09 718.68)">
        <path d="m0 0h-1.452l0.325 1.564h5.069l-0.324-1.564h-1.453l-1.053-5.065h-2.168z" fill="#365181"/>
      </g>
      <g transform="translate(512.67 720.25)">
        <path d="m0 0h2.939l0.647-3.957h0.063l0.823 3.957h2.058l-1.379-6.628h-2.935l-0.553 4.052h-0.073l-0.844-4.052h-2.124z" fill="#365181"/>
      </g>
      <g clip-path="url(#a)">
        <g transform="translate(491.23 720.25)">
          <path d="m0 0h3.198c1.56 0 2.113-0.867 2.113-1.691 0-1.25-1.053-1.614-1.574-1.709v-0.093c0.634-0.08 0.92-0.53 0.92-1.086 0-0.434-0.097-0.883-0.097-1.458 0-0.227 0.043-0.506 0.057-0.591h-2.317c-5e-3 0.036-0.034 0.255-0.034 0.384 0 0.556 0.152 0.946 0.152 1.554 0 0.279-0.111 0.547-0.552 0.547h-0.56l-0.512-2.485h-2.174zm2.149-2.761c0.613 0 0.874 0.304 0.874 0.705 0 0.327-0.189 0.492-0.632 0.492h-0.545l-0.249-1.197z" fill="#365181"/>
        </g>
        <g transform="translate(506.78 720.25)">
          <path d="m0 0h2.167l-1.377-6.628h-2.169z" fill="#365181"/>
        </g>
        <g transform="translate(397.07 720.25)">
          <path d="m0 0h2.166l-1.052-5.065h2.12l-0.309-1.563h-4.305z" fill="#365181"/>
        </g>
        <g transform="translate(422.14 720.25)">
          <path d="m0 0h2.166l-0.592-2.849h0.055l1.92 2.849h2.308l-2.395-3.128 1.198-3.5h-2.306l-0.899 2.944h-0.054l-0.612-2.944h-2.169z" fill="#365181"/>
        </g>
        <g transform="translate(433.38 716.1)">
          <path d="m0 0h-1.292l-0.517-2.486h-2.168l1.379 6.629h2.167l-0.517-2.487h1.293l0.518 2.487h2.166l-1.378-6.629h-2.168z" fill="#365181"/>
        </g>
        <g transform="translate(448.62 720.25)">
          <path d="m0 0h4.554l-0.325-1.564h-2.388l-0.203-0.976h2.165l-0.327-1.565h-2.163l-0.199-0.96h2.497l-0.328-1.563h-4.663z" fill="#365181"/>
        </g>
        <g transform="translate(440.31 720.25)">
          <path d="m0 0h4.555l-0.325-1.564h-2.389l-0.202-0.976h2.165l-0.328-1.565h-2.163l-0.199-0.96h2.497l-0.328-1.563h-4.662z" fill="#365181"/>
        </g>
        <g transform="translate(406.91 720.34)">
          <path d="m0 0c1.613 0 2.482-0.91 2.482-2.34 0-1.74-0.899-4.471-3.74-4.471-1.569 0-2.483 0.867-2.483 2.328 0 1.925 0.995 4.483 3.741 4.483m-1.027-5.154c0.95 0 1.356 2.368 1.356 2.914 0 0.296-0.134 0.583-0.561 0.583-0.982 0-1.359-2.413-1.359-2.91 0-0.474 0.302-0.587 0.564-0.587" fill="#365181"/>
        </g>
        <g transform="translate(457.31 720.25)">
          <path d="m0 0h2.454c2.093 0 2.959-1.171 2.959-2.468 0-2.463-1.551-4.16-4.152-4.16h-2.643zm1.109-5.065h0.632c0.879 0 1.49 1.159 1.49 2.59 0 0.516-0.233 0.911-1.007 0.911h-0.387z" fill="#365181"/>
        </g>
        <g transform="translate(417.66 716.1)">
          <path d="m0 0c-0.362-1.783-1.671-2.577-3.192-2.577-1.604 0-2.48 0.902-2.48 2.329 0 1.67 0.85 4.481 3.745 4.481 1.325 0 2.384-0.491 2.351-1.903-5e-3 -0.204-0.048-0.539-0.066-0.674h-2.018c7e-3 0.041 0.044 0.226 0.044 0.419 0 0.374-0.275 0.5-0.531 0.5-0.989 0-1.367-2.383-1.367-2.918 0-0.4 0.232-0.579 0.554-0.579 0.331 0 0.641 0.257 0.904 0.922z" fill="#365181"/>
        </g>
        <g transform="translate(526.09 715.6)">
          <path d="m0 0c-0.184-0.186-0.184-0.185 0 0" fill="#365181"/>
        </g>
        <g transform="translate(542.64 722.76)">
          <path d="m0 0 6.709-0.169-7.968-4.509c0.435 1.604 0.823 3.066 1.259 4.678m-0.037 7.886-1.161-6.083h-5.517zm15.268-6.083h-14.722c1.931 7.271 3.679 13.439 3.679 13.439s-6.628-7.087-12.512-13.439l-58.354-0.122c3e-3 0 0.024 0 0.061-1e-3l-0.061 1e-3 56.906-1.435c-4.377-4.655-6.684-7.31-6.776-7.402l0.022 0.021c0.187 0.168 8.066 7.348 8.066 7.348l6.925-0.174-1.042-5.463-32.451-18.359c-0.08-0.044-0.126-0.069-0.13-0.073 0 0 25.768 13.54 32.274 16.83 0 0-2.284-11.917-2.284-11.969 0 3e-3 2e-3 0.011 4e-3 0.023l-4e-3 -0.023 0.029 0.117c0.208 0.777 1.578 5.461 3.438 12.398 8.469 4.32 16.932 8.283 16.932 8.283" fill="#365181"/>
        </g>
      </g>
    </g>
  </g>
</a>
</svg>
