<svg xmlns="http://www.w3.org/2000/svg" xmlns:xlink="http://www.w3.org/1999/xlink" version="1.1" width="150" height="51"><rect id="backgroundrect" width="100%" height="100%" x="0" y="0" fill="none" stroke="none"/>
  
<g class="currentLayer" style=""><title>Layer 1</title><a xlink:href="https://www.solidworks.com/sw/183_ENU_HTML.htm" xlink:show="new" id="svg_1" class="">
    <rect fill="#272833" fill-opacity="0" id="bounding-box" x="0.006190328858792782" y="0.007140646688640118" width="150" height="50.735294342041016" onmouseleave="event.target.setAttribute('fill-opacity', '0');" onmouseover="event.target.setAttribute('fill-opacity', '0.4');"/>
    <g transform="matrix(1.8601,0,0,-1.8601,-574.67,1808.3) " onmouseover="document.getElementById('bounding-box').setAttribute('fill-opacity', '0.4');" onmouseleave="document.getElementById('bounding-box').setAttribute('fill-opacity', '0');" id="svg_2">
      <path d="m366.30399567940276,963.8695504313428 c0.002000000000000001,0.06900000000000003 -0.02900000000000001,0.15700000000000006 -0.08900000000000004,0.20400000000000001 c-0.06100000000000002,0.049000000000000016 -0.127,0.05900000000000002 -0.19200000000000006,0.05900000000000002 h-0.3330000000000002 l-2.5700000000000003,-5.824 l-0.6700000000000004,3.12 c-0.039000000000000014,0.274 -0.259,0.461 -0.519,0.4460000000000001 h-0.4320000000000001 l-2.029,-3.532 l0.020000000000000007,5.51 c0.002000000000000001,0.07400000000000002 -0.027000000000000014,0.16400000000000006 -0.09200000000000005,0.21500000000000005 c-0.06300000000000003,0.05200000000000002 -0.134,0.06500000000000003 -0.20500000000000004,0.06500000000000003 h-0.4330000000000001 v-6.62 h0.552 v0.0010000000000000005 c0.003000000000000002,0 0.008000000000000004,-0.0010000000000000005 0.012000000000000004,-0.0010000000000000005 c0.16200000000000006,-0.002000000000000001 0.3090000000000001,0.039000000000000014 0.4290000000000001,0.126 c0.10900000000000003,0.07800000000000003 0.203,0.18700000000000006 0.2860000000000001,0.3180000000000001 l1.776,3.169 l0.7400000000000002,-3.613 h0.46 h0.014000000000000004 c0.3020000000000001,0 0.555,0.17600000000000005 0.6870000000000004,0.4760000000000001 l2.5540000000000003,5.743 c0.018000000000000006,0.047000000000000014 0.033000000000000015,0.07800000000000003 0.034000000000000016,0.138 m23.281,0.263 h-2.732 c-1.276,-0.003000000000000002 -1.411,-1.051 -1.417,-1.545 c0,-0.52 0.3780000000000001,-0.934 0.5660000000000002,-1.102 l1.86,-1.822 c0.22100000000000006,-0.21700000000000005 0.3280000000000001,-0.4730000000000001 0.3280000000000001,-0.7110000000000002 c0,-0.403 -0.3080000000000001,-0.7330000000000002 -0.806,-0.7310000000000002 c-0.0010000000000000005,-0.003000000000000002 -2.408,-0.004000000000000002 -2.43,-0.010000000000000004 c-0.07900000000000003,-0.015000000000000006 -0.16200000000000006,-0.11800000000000004 -0.16000000000000006,-0.201 h-0.007000000000000004 l0.007000000000000004,-0.003000000000000002 v-0.4970000000000001 h2.704 c1.2770000000000001,0.005000000000000002 1.411,1.051 1.4180000000000001,1.545 c0,0.002000000000000001 -0.0010000000000000005,0.002000000000000001 -0.0010000000000000005,0.004000000000000002 c0.0010000000000000005,0.6840000000000004 -0.6290000000000002,1.213 -0.6330000000000002,1.215 l-1.7640000000000002,1.7360000000000002 c-0.22000000000000006,0.21700000000000005 -0.3560000000000001,0.4400000000000001 -0.3570000000000001,0.6800000000000004 c0.0010000000000000005,0.405 0.3090000000000001,0.7330000000000002 0.805,0.7330000000000002 c0.003000000000000002,0.0010000000000000005 2.438,0.003000000000000002 2.458,0.009000000000000006 l0.006000000000000004,-0.018000000000000006 l-0.005000000000000002,0.018000000000000006 c0.07900000000000003,0.015000000000000006 0.16300000000000006,0.11900000000000004 0.16100000000000006,0.201 c0,0 -0.0010000000000000005,0.0010000000000000005 0,0.002000000000000001 c0,0.004000000000000002 -0.0010000000000000005,0.403 -0.0010000000000000005,0.4970000000000001 m-19.498,-0.6640000000000003 c-1.214,0.06700000000000003 -2.6020000000000003,-0.6480000000000002 -3.079,-2.5780000000000003 c-0.4700000000000001,-1.8920000000000003 0.4080000000000001,-2.811 1.598,-2.964 l0.12400000000000003,-0.006000000000000004 c1.228,-0.06500000000000003 2.535,0.6510000000000002 2.995,2.581 c0.4490000000000001,1.8930000000000002 -0.4310000000000001,2.8440000000000003 -1.6380000000000003,2.967 m2.348,-3.024 c-0.4470000000000001,-1.8820000000000001 -1.803,-3.367 -3.968,-3.2 v0.0010000000000000005 c-2.014,0.233 -2.591,2.005 -2.166,3.7030000000000003 c0.4690000000000001,1.8800000000000003 1.82,3.365 3.954,3.2 v-0.002000000000000001 c1.987,-0.232 2.582,-2.006 2.18,-3.702 m12.055,3.625 c-0.056000000000000015,0.042000000000000016 -0.11900000000000004,0.05000000000000002 -0.18200000000000005,0.05100000000000002 h-0.3230000000000001 l-3.407,-2.914 l0.453,2.575 c0.028000000000000008,0.14300000000000004 -0.041000000000000016,0.24000000000000005 -0.09900000000000006,0.281 c-0.06000000000000002,0.04600000000000002 -0.135,0.07 -0.20800000000000005,0.07 h-0.3280000000000001 l-1.23,-6.62 h0.7280000000000002 l0.539,2.93 l2.6980000000000004,-2.932 h0.3230000000000001 c0.06400000000000003,0.002000000000000001 0.126,0.011000000000000006 0.18100000000000005,0.05300000000000002 c0.056000000000000015,0.039000000000000014 0.08600000000000003,0.11700000000000003 0.08400000000000003,0.18000000000000005 c0,0.11900000000000004 -0.09700000000000006,0.23900000000000005 -0.09700000000000006,0.23900000000000005 l-2.553,2.774 l3.408,2.894 s0.09600000000000006,0.08200000000000003 0.09600000000000006,0.23900000000000005 c0.0010000000000000005,0.06300000000000003 -0.027000000000000014,0.139 -0.08300000000000003,0.18000000000000005 m-6.841,-0.9420000000000002 c-0.133,0.129 -0.3360000000000002,0.19100000000000006 -0.6500000000000002,0.25 c-0.08200000000000003,0.015000000000000006 -0.21700000000000005,0.027000000000000014 -0.3700000000000001,0.035 c-0.3790000000000001,0.021000000000000008 -1.505,0.004000000000000002 -1.85,0.0010000000000000005 l-0.4360000000000001,-2.408 c0.259,-0.004000000000000002 0.556,-0.008000000000000004 0.7650000000000002,-0.009000000000000006 c0.5890000000000002,0 1.159,0.019000000000000006 1.562,0.129 c1.037,0.281 1.5510000000000002,1.457 0.979,2.002 m0.6690000000000004,0.4 c0.2950000000000001,-0.3350000000000002 0.3170000000000001,-0.9570000000000002 0.233,-1.34 c-0.10200000000000002,-0.468 -0.547,-1.649 -2.215,-1.798 l1.405,-2.407 s0.09600000000000006,-0.14400000000000004 0.09600000000000006,-0.23900000000000005 c0.0010000000000000005,-0.06300000000000003 -0.027000000000000014,-0.14100000000000001 -0.08400000000000003,-0.18000000000000005 c-0.056000000000000015,-0.042000000000000016 -0.11700000000000003,-0.05300000000000002 -0.18000000000000005,-0.05300000000000002 h-0.3710000000000001 l-1.6480000000000001,2.84 l-1.327,0.006000000000000004 l-0.515,-2.846 h-0.7290000000000002 l1.232,6.622 h1.701 c1.005,0 1.887,-0.015000000000000006 2.402,-0.6050000000000002 m-48.958,-0.809 c-0.08300000000000003,-0.533 0.08100000000000003,-1.159 0.6750000000000004,-1.574 l2.116,-1.477 c0.22200000000000006,-0.15300000000000005 0.3320000000000002,-0.259 0.3050000000000001,-0.4380000000000001 c-0.040000000000000015,-0.24700000000000005 -0.16900000000000007,-0.3470000000000002 -0.6080000000000002,-0.3470000000000002 h-2.461 c-0.263,0 -0.406,-0.129 -0.454,-0.4260000000000001 v-0.917 h2.883 c1.264,0 1.8890000000000002,0.7450000000000002 2.015,1.537 c0.11800000000000004,0.7450000000000002 -0.132,1.2770000000000001 -0.6130000000000002,1.62 l-2.249,1.596 c-0.18100000000000005,0.13 -0.22600000000000006,0.19700000000000006 -0.21300000000000005,0.2950000000000001 c0.020000000000000007,0.16200000000000006 0.16800000000000007,0.22900000000000006 0.4240000000000001,0.22900000000000006 h2.5700000000000003 c0.3140000000000001,0 0.4930000000000001,0.3210000000000001 0.543,0.6390000000000002 v0.7050000000000002 h-3.398 c-0.7540000000000002,0 -1.413,-0.6740000000000004 -1.5350000000000001,-1.4420000000000002 m25.616,1.443 h-3.564 l-0.018000000000000006,-0.10700000000000003 c-0.08300000000000003,-0.4490000000000001 -0.04600000000000002,-0.97 0.6650000000000003,-0.97 h2.64 c1.045,0 1.445,-0.7560000000000002 1.186,-2.175 c-0.23800000000000004,-1.3 -0.9380000000000002,-2.293 -2.002,-2.293 h-1.431 l0.6790000000000004,3.724 h-1.217 c-0.16400000000000006,0 -0.277,-0.11900000000000004 -0.2960000000000001,-0.22500000000000006 l-0.8350000000000002,-4.575 h2.791 c2.061,0 3.498,0.97 3.943,3.417 c0.3440000000000002,1.8800000000000003 -0.4390000000000001,3.204 -2.541,3.204 m-8.461,-5.546 h-2.813 l0.972,5.32 c0.018000000000000006,0.10700000000000003 -0.06100000000000002,0.22500000000000006 -0.19300000000000006,0.22500000000000006 h-1.238 l-1.209,-6.62 h4.66 l0.12100000000000002,0.6610000000000003 c0.05400000000000002,0.2970000000000001 -0.04600000000000002,0.4140000000000001 -0.3000000000000001,0.4140000000000001 m3.5060000000000002,5.546 h-1.238 l-1.209,-6.621 h1.472 l1.1680000000000001,6.396 c0.020000000000000007,0.10700000000000003 -0.06000000000000002,0.22500000000000006 -0.19300000000000006,0.22500000000000006 m-11.449,-1.135 c-1.343,0 -2.047,-0.781 -2.299,-2.317 c-0.252,-1.5390000000000001 0.19500000000000006,-2.318 1.538,-2.318 s2.046,0.779 2.298,2.318 c0.253,1.536 -0.19400000000000006,2.317 -1.537,2.317 m2.999,-2.317 c-0.3090000000000001,-1.8800000000000003 -1.581,-3.454 -3.946,-3.454 c-2.367,0 -3.122,1.574 -2.813,3.454 c0.3080000000000001,1.879 1.581,3.451 3.947,3.451 c2.365,0 3.121,-1.572 2.8120000000000003,-3.451 m-17.2,5.758 c-1.407,0.231 -3.922,0.3200000000000001 -4.782,-0.998 c-0.6640000000000003,-1.018 0.5910000000000002,-2.4130000000000003 1.734,-3.7640000000000002 c0.916,-1.082 1.913,-2.116 1.506,-2.72 c-0.3320000000000002,-0.4940000000000001 -2.463,-0.4930000000000001 -3.197,-0.532 c-0.8910000000000002,-0.047000000000000014 -2.175,-0.05000000000000002 -2.399,-0.17200000000000001 c-0.201,-0.10800000000000003 -0.3130000000000001,-0.4440000000000001 0.4410000000000001,-0.5790000000000002 c0.6060000000000002,-0.10900000000000003 2.049,-0.3300000000000001 3.571,-0.3290000000000001 c1.589,0 3.258,0.261 3.62,1.491 c0.2910000000000001,0.988 -0.7180000000000002,2.047 -1.605,3.121 c-0.97,1.176 -1.9540000000000002,2.014 -1.871,2.847 c0.06300000000000003,0.6480000000000002 1.334,0.6850000000000004 3.442,0.7220000000000002 c0.4380000000000001,0.008000000000000004 1.311,0.02900000000000001 1.143,0.3750000000000001 c-0.15000000000000005,0.3060000000000001 -0.803,0.4070000000000001 -1.6030000000000002,0.538 m-6.485,-2.933 c-0.902,0.6190000000000002 -2.51,0.8260000000000002 -3.834,0.7570000000000002 c-1.179,-0.06200000000000002 -3.206,-0.4370000000000001 -3.13,-0.81 c0.07200000000000002,-0.403 1.355,-0.278 1.943,-0.278 c1.2930000000000001,0 3.345,-0.07900000000000003 3.668,-0.912 c0.6970000000000004,-1.795 -4.029,-5.018 -5.037,-4.708 c-0.456,0.139 0.926,2.482 1.427,3.324 c0.2980000000000001,0.503 0.7520000000000002,1.2930000000000001 0.3650000000000001,1.347 c-0.4330000000000001,0.06000000000000002 -0.91,-0.6840000000000004 -1.22,-1.113 c-0.8410000000000002,-1.165 -1.702,-2.4370000000000003 -2.3930000000000002,-3.744 c-0.21400000000000005,-0.404 -0.922,-1.6190000000000002 -0.6790000000000004,-1.776 c0.22700000000000006,-0.14600000000000005 1.308,0.06200000000000002 2.6830000000000007,0.6070000000000002 c4.322,1.711 6.268,3.941 6.789,5.783 c0.18300000000000005,0.6490000000000002 -0.133,1.215 -0.5820000000000002,1.5230000000000001 m-3.209,7.869 c-0.08900000000000004,0.2910000000000001 1.353,0.6690000000000004 2.934,0.7390000000000002 c1.593,0.07 3.477,-0.24700000000000005 3.829,-1.298 c0.5750000000000002,-1.722 -2.342,-4.233 -4.883,-5.467 c-0.6240000000000002,-0.3020000000000001 -1.001,-0.3850000000000001 -1.159,-0.3640000000000001 c-0.14900000000000005,0.020000000000000007 -0.17300000000000001,0.16000000000000006 -0.12400000000000003,0.256 c0.09000000000000004,0.18100000000000005 0.501,0.55 1.049,0.9510000000000002 c2.861,2.09 3.791,3.623 3.251,4.244 c-0.3470000000000002,0.3980000000000002 -1.7970000000000002,0.6750000000000004 -3.303,0.6750000000000004 c-0.4090000000000001,0 -1.483,-0.08900000000000004 -1.594,0.264 " fill="#ee2722" id="svg_3"/>
    </g>
  </a></g></svg>